# xmcd
#
# Track frame offsets: 
#        150
#        16432
#        34667
#        47340
#        71327
#        85702
#        107452
#        123022
#        136750
#        152085
#        167150
#        184670
#        204002
#        220632
#        249897
#
# Disc length: 3402 seconds
#
# Revision: 1
# Processed by: cddbd v1.5.2PL0 Copyright (c) Steve Scherf et al.
# Submitted via: ExactAudioCopy v1.0b3
#
DISCID=aa0d480f
DTITLE=Charlie Daniels Band, The - Playlist - The Very Best Of The Cha
DTITLE=rlie Daniels Band
DYEAR=2010
DGENRE=Country
TTITLE0=The Devil Went Down To Georgia
TTITLE1=Long Haired Country Boy
TTITLE2=Wichita Jail
TTITLE3=Uneasy Rider
TTITLE4=Mississippi
TTITLE5=Trudy
TTITLE6=Boogie Woogie Fiddle Country Blues
TTITLE7=Texas
TTITLE8=Simple Man
TTITLE9=In America
TTITLE10=Still In Saigon
TTITLE11=The Legend Of Wooley Swamp
TTITLE12=Drinkin' My Baby Goodbye
TTITLE13=The South's Gonna Do It Again
TTITLE14=Data Track
EXTD=
EXTT0=
EXTT1=
EXTT2=
EXTT3=
EXTT4=
EXTT5=
EXTT6=
EXTT7=
EXTT8=
EXTT9=
EXTT10=
EXTT11=
EXTT12=
EXTT13=
EXTT14=
PLAYORDER=
